# xmcd
# Copyright (C) 1995-1998 Ti Kan
#
# Track frame offsets:
#       150
#       9815
#       19295
#       27217
#       36332
#       45155
#       55317
#       65025
#       78617
#       89585
#       99765
#       108937
#       118105
#       132377
#       145687
#       156305
#       169702
#       182457
#       192490
#       203472
#
# Disc length: 2845 seconds
#
# Revision: 0
# Processed by: cddbd v1.5.2PL0 Copyright (c) Steve Scherf et al.
# Submitted via: CD-Import v1.0
#
DISCID=050b1b14
DTITLE=Ventures - Forever Fender
DYEAR=1994
DGENRE=
TTITLE0=Walk Don't Run
TTITLE1=Perfida
TTITLE2=Rambunk Shush
TTITLE3=Lullaby Of Leaver 
TTITLE4=Theme From Silver City
TTITLE5=Blue Moon
TTITLE6=Lolita Ya Ya
TTITLE7=Wipeout
TTITLE8=Walk Don't Run
TTITLE9=Slaughter On 10th Ave
TTITLE10=Diamond-Head
TTITLE11=Secret Agent Man
TTITLE12=Apache
TTITLE13=Lonely Sea
TTITLE14=The Cruel Sea
TTITLE15=The House Of The Rising Sun
TTITLE16=Cravan
TTITLE17=Fugitive
TTITLE18=Bulldog
TTITLE19=Out Of Limits
EXTD=
EXTT0=
EXTT1=
EXTT2=
EXTT3=
EXTT4=
EXTT5=
EXTT6=
EXTT7=
EXTT8=
EXTT9=
EXTT10=
EXTT11=
EXTT12=
EXTT13=
EXTT14=
EXTT15=
EXTT16=
EXTT17=
EXTT18=
EXTT19=
PLAYORDER=
